<mxfile host="app.diagrams.net" modified="2023-06-25T07:28:08.879Z" agent="Mozilla/5.0 (Windows NT 10.0; Win64; x64) AppleWebKit/537.36 (KHTML, like Gecko) Chrome/114.0.0.0 Safari/537.36" etag="8OrKc09X8bFfODIe5Buf" version="21.5.0" type="github">
  <diagram name="第 1 页" id="YSEcBhMwiY3fUkA75Q5k">
    <mxGraphModel dx="1185" dy="610" grid="1" gridSize="10" guides="1" tooltips="1" connect="1" arrows="1" fold="1" page="1" pageScale="1" pageWidth="827" pageHeight="1169" math="0" shadow="0">
      <root>
        <mxCell id="0" />
        <mxCell id="1" parent="0" />
        <mxCell id="CyWju0glcFpblsCp5NvN-1" value="&lt;h1&gt;通信时延误差&lt;/h1&gt;" style="text;html=1;strokeColor=none;fillColor=none;spacing=5;spacingTop=-20;whiteSpace=wrap;overflow=hidden;rounded=0;" vertex="1" parent="1">
          <mxGeometry x="340" y="80" width="190" height="120" as="geometry" />
        </mxCell>
        <mxCell id="CyWju0glcFpblsCp5NvN-2" value="触发位置" style="text;html=1;strokeColor=none;fillColor=none;align=center;verticalAlign=middle;whiteSpace=wrap;rounded=0;" vertex="1" parent="1">
          <mxGeometry x="309" y="480" width="60" height="30" as="geometry" />
        </mxCell>
        <mxCell id="CyWju0glcFpblsCp5NvN-3" value="" style="endArrow=none;html=1;rounded=0;" edge="1" parent="1">
          <mxGeometry width="50" height="50" relative="1" as="geometry">
            <mxPoint x="39" y="460" as="sourcePoint" />
            <mxPoint x="789" y="460" as="targetPoint" />
          </mxGeometry>
        </mxCell>
        <mxCell id="CyWju0glcFpblsCp5NvN-5" value="" style="triangle;whiteSpace=wrap;html=1;direction=south;" vertex="1" parent="1">
          <mxGeometry x="324" y="430" width="30" height="30" as="geometry" />
        </mxCell>
        <mxCell id="CyWju0glcFpblsCp5NvN-6" value="" style="endArrow=none;dashed=1;html=1;dashPattern=1 3;strokeWidth=2;rounded=0;" edge="1" parent="1">
          <mxGeometry width="50" height="50" relative="1" as="geometry">
            <mxPoint x="339" y="410" as="sourcePoint" />
            <mxPoint x="589" y="410" as="targetPoint" />
          </mxGeometry>
        </mxCell>
        <mxCell id="CyWju0glcFpblsCp5NvN-7" value="" style="triangle;whiteSpace=wrap;html=1;direction=south;" vertex="1" parent="1">
          <mxGeometry x="579" y="430" width="30" height="30" as="geometry" />
        </mxCell>
        <mxCell id="CyWju0glcFpblsCp5NvN-8" value="时延" style="text;html=1;strokeColor=none;fillColor=none;align=center;verticalAlign=middle;whiteSpace=wrap;rounded=0;" vertex="1" parent="1">
          <mxGeometry x="429" y="360" width="60" height="30" as="geometry" />
        </mxCell>
        <mxCell id="CyWju0glcFpblsCp5NvN-9" value="" style="endArrow=none;html=1;rounded=0;exitX=-0.133;exitY=0.476;exitDx=0;exitDy=0;exitPerimeter=0;" edge="1" parent="1" source="CyWju0glcFpblsCp5NvN-5">
          <mxGeometry width="50" height="50" relative="1" as="geometry">
            <mxPoint x="289" y="400" as="sourcePoint" />
            <mxPoint x="339" y="390" as="targetPoint" />
          </mxGeometry>
        </mxCell>
        <mxCell id="CyWju0glcFpblsCp5NvN-10" value="" style="endArrow=none;html=1;rounded=0;exitX=-0.133;exitY=0.476;exitDx=0;exitDy=0;exitPerimeter=0;" edge="1" parent="1">
          <mxGeometry width="50" height="50" relative="1" as="geometry">
            <mxPoint x="594.64" y="429.99" as="sourcePoint" />
            <mxPoint x="593.64" y="393.99" as="targetPoint" />
          </mxGeometry>
        </mxCell>
        <mxCell id="CyWju0glcFpblsCp5NvN-11" value="实际位置" style="text;html=1;strokeColor=none;fillColor=none;align=center;verticalAlign=middle;whiteSpace=wrap;rounded=0;" vertex="1" parent="1">
          <mxGeometry x="564" y="480" width="60" height="30" as="geometry" />
        </mxCell>
        <mxCell id="CyWju0glcFpblsCp5NvN-16" style="edgeStyle=orthogonalEdgeStyle;rounded=0;orthogonalLoop=1;jettySize=auto;html=1;" edge="1" parent="1" source="CyWju0glcFpblsCp5NvN-13" target="CyWju0glcFpblsCp5NvN-14">
          <mxGeometry relative="1" as="geometry" />
        </mxCell>
        <mxCell id="CyWju0glcFpblsCp5NvN-13" value="" style="image;html=1;image=img/lib/clip_art/computers/Monitor_Tower_128x128.png" vertex="1" parent="1">
          <mxGeometry x="80" y="190" width="80" height="80" as="geometry" />
        </mxCell>
        <mxCell id="CyWju0glcFpblsCp5NvN-14" value="" style="image;html=1;image=img/lib/clip_art/computers/Harddrive_128x128.png" vertex="1" parent="1">
          <mxGeometry x="80" y="350" width="80" height="80" as="geometry" />
        </mxCell>
      </root>
    </mxGraphModel>
  </diagram>
</mxfile>
